<?xml version="1.0" standalone="no"?>
<!DOCTYPE svg PUBLIC "-//W3C//DTD SVG 20010904//EN"
 "http://www.w3.org/TR/2001/REC-SVG-20010904/DTD/svg10.dtd">
<svg version="1.0" xmlns="http://www.w3.org/2000/svg"
 width="246.000000pt" height="246.000000pt" viewBox="0 0 246.000000 246.000000"
 preserveAspectRatio="xMidYMid meet">
<metadata>
Created by potrace 1.11, written by Peter Selinger 2001-2013
</metadata>
<g transform="translate(0.000000,246.000000) scale(0.100000,-0.100000)"
fill="#000000" stroke="none">
<path d="M0 1230 l0 -1230 1230 0 1230 0 0 1230 0 1230 -1230 0 -1230 0 0
-1230z m1701 789 c49 -25 96 -80 110 -131 6 -24 9 -77 7 -119 -4 -61 -12 -91
-40 -150 -44 -92 -114 -191 -207 -292 -39 -42 -71 -86 -71 -98 0 -34 39 -99
73 -120 24 -15 44 -19 84 -16 45 3 62 11 120 55 37 29 73 52 80 52 21 0 53
-38 53 -64 0 -25 -43 -84 -84 -117 -14 -11 -46 -29 -71 -40 l-45 -20 24 -42
c107 -186 63 -409 -95 -476 -142 -61 -272 3 -299 148 -5 29 -10 157 -10 283
l0 229 -42 -26 c-72 -45 -165 -85 -236 -101 -84 -20 -232 -20 -294 -1 l-48 15
0 -152 c0 -121 -3 -156 -16 -174 -22 -32 -69 -54 -99 -46 -53 13 -53 15 -51
486 l1 438 22 22 c32 31 86 30 119 -4 l26 -26 55 25 c43 20 71 25 129 25 131
0 239 -71 281 -185 16 -45 16 -155 -1 -210 -19 -62 -8 -61 85 6 l74 52 5 310
c3 206 9 319 17 336 56 126 224 188 344 128z"/>
<path d="M1554 1885 c-39 -27 -45 -60 -42 -255 l3 -185 38 50 c20 28 54 83 74
123 30 60 37 86 41 150 4 68 2 80 -18 105 -24 31 -63 36 -96 12z"/>
<path d="M820 1449 c-72 -29 -120 -118 -120 -225 0 -100 31 -129 141 -129 53
0 74 5 96 21 38 29 71 79 79 123 9 45 -9 132 -33 166 -35 48 -105 67 -163 44z"/>
<path d="M1510 804 c0 -206 6 -232 53 -248 24 -9 31 -6 55 17 25 26 27 33 27
115 0 78 -3 94 -32 152 -18 36 -48 85 -68 109 l-35 44 0 -189z"/>
</g>
</svg>
