<svg xmlns="http://www.w3.org/2000/svg" data-name="Layer 1" viewBox="0 0 140 40">
  <g fill="#00" fill-rule="evenodd">
    <circle fill-rule="nonzero" cx="68.5" cy="9.5" r="2.5"/>
    <path d="M136.785 11.191c-2.29 0-4.064 1.588-5.099 3.176.037-.406.037-.738.037-1.034a2.21 2.21 0 00-2.475-1.92c-1.035.11-1.81.923-1.922 1.957 0 1.33.296 3.361.296 5.503 0 .37 0 .702-.037 1.035-2.032 2.068-4.545 3.693-7.76 3.693-2.438 0-3.546-.923-4.027-2.253 5.654-.037 8.536-2.29 8.536-5.688 0-2.622-2.291-4.469-5.543-4.469-4.249 0-7.76 3.213-7.76 8.237a7.993 7.993 0 00.518 3.065 2.345 2.345 0 01-2.032.997c-1.589 0-2.18-1.255-2.18-8.051 0-3.288.296-6.87.296-10.01 0-1.218-.961-2.216-2.18-2.216-1.22 0-2.217.96-2.217 2.18 0 1.772.147 3.73.221 6.721-.776-.48-1.921-.886-3.731-.886-5.543 0-8.499 4.321-8.499 8.089-.037 1.07.185 2.179.554 3.176a3.559 3.559 0 01-2.29.96c-.924 0-1.922-.812-1.922-3.804 0-.665.111-3.324.111-4.321 0-2.586-1.884-4.137-4.655-4.137-2.624 0-4.397 1.478-5.469 3.176.037-.406.037-.738.037-1.034a2.21 2.21 0 00-2.476-1.92c-1.034.11-1.81.923-1.92 1.957 0 1.33.295 3.361.295 5.503 0 .37 0 .702-.037 1.035-.185 1.662-2.66 3.508-4.804 3.508-2.77 0-3.842-1.588-3.842-4.173 0-1.182.923-2.032.923-3.361a2.83 2.83 0 00-2.77-2.844 2.83 2.83 0 00-2.846 2.77v.148c0 1.219.924 2.068.924 3.213 0 2.585-1.146 4.21-3.843 4.21-2.106 0-4.914-1.994-5.173-3.915v.074c2.993-2.844 8.24-8.458 8.24-13.296 0-3.694-1.995-6.242-5.58-6.242-4.433 0-6.724 3.25-6.724 6.611 0 1.404.185 5.873.185 12.115v.923c-1.035 1.588-2.513 3.767-4.582 3.767-1.109 0-1.81-.775-2.106-1.994-.333-1.33-.259-3.103-.259-4.986 0-.665 0-1.367.037-2.032 1.404.037 2.587.037 3.363.037.923.037 1.662-.701 1.7-1.625 0-.96-.666-1.662-1.737-1.662-.961 0-2.107.037-3.178.037.074-1.662.148-3.25.148-4.58a2.182 2.182 0 00-1.959-2.437 2.182 2.182 0 00-2.438 1.957v.517c0 .406.11 2.438.185 4.506-.444 0-.85-.037-1.294-.037-.886-.037-1.662.665-1.7 1.552v.11a1.68 1.68 0 001.7 1.625c.37 0 .776-.037 1.404-.037v.37c0 .739-.11 2.474-.221 4.026-2.254 2.585-5.025 4.838-8.831 4.838-2.439 0-3.547-.923-3.99-2.253 5.653-.037 8.535-2.29 8.535-5.688 0-2.622-2.291-4.469-5.58-4.469-4.249 0-7.759 3.213-7.759 8.237 0 .738.074 1.477.259 2.216a17.265 17.265 0 01-5.025 1.92 8.097 8.097 0 001.662-4.875c0-5.282-3.658-7.46-7.426-7.46-1.7 0-3.363.516-4.693 1.55a2.185 2.185 0 00-2.18-1.55C.96 11.19 0 12.15 0 13.37c0 1.33.296 4.95.296 9.751 0 4.801-.296 7.978-.296 9.825 0 1.292.702 2.179 1.884 2.179 1.109 0 2.55-.887 2.55-2.18 0-.48-.185-3.471-.296-7.239 1.81.813 3.88.96 6.651.96 4.545 0 8.24-1.661 10.198-2.732 1.367 1.772 3.732 2.733 7.02 2.733 4.102 0 7.316-2.364 9.2-4.137.444 2.807 2.402 4.174 5.654 4.174 2.439 0 4.175-1.515 5.284-2.881-.074 4.358-.259 7.904-.259 9.824 0 5.208 2.919 6.353 5.062 6.353 4.323 0 6.614-3.361 6.614-7.165a10.316 10.316 0 00-2.143-6.168c1.958-.037 3.953-.48 5.505-2.733 1.552 2.437 4.139 2.733 5.653 2.733 1.848 0 3.326-.776 4.582-1.995.185 1.219 1.293 2.069 2.513 1.884a2.203 2.203 0 001.884-2.032c0-.406-.148-2.179-.222-3.84 0-2.254 2.365-6.206 4.471-6.206 1.072 0 1.737.924 1.737 2.216 0 .998-.111 2.955-.111 4.248 0 3.065.776 5.762 5.099 5.762a7.305 7.305 0 004.803-1.921 7.804 7.804 0 005.321 1.92c2.18 0 4.286-.886 5.801-2.51.517 1.255 1.7 2.474 4.286 2.474a5.58 5.58 0 004.397-1.958c1.404 1.256 3.547 1.958 6.318 1.958 3.289 0 5.986-1.515 7.907-3.029 0 .296-.037.591-.037.85.148 1.218 1.22 2.105 2.44 1.957 1.034-.11 1.847-.923 1.957-1.92 0-.407-.147-2.217-.221-3.879.037-2.659 2.734-5.872 4.064-5.872.887 0 .702 1.219 2.328 1.219 1.182 0 2.106-.96 2.106-2.143 0-.997-.739-2.659-3.215-2.659zM52.32 6.76c0-1.884 1.108-3.287 2.29-3.287 1.33 0 1.885 1.33 1.885 2.733 0 3.472-2.512 6.759-4.36 8.901.037-3.176.185-7.682.185-8.347zM7.685 23.416c-1.33.037-2.586-.48-3.547-1.403 0-.96.037-1.847.037-2.696v-.111c0-2.105 1.552-4.839 4.434-4.839 1.737 0 3.473 1.367 3.473 4.359 0 3.324-2.327 4.69-4.397 4.69zm19.62-9.455c1.035-.074 1.922.739 1.996 1.773v.11c0 1.737-1.109 2.845-5.247 2.882 0-3.694 2.032-4.765 3.251-4.765zM54.167 36.64c-1.182 0-1.81-1.108-1.81-2.88 0-.186-.074-4.285-.148-8.237 1.22 1.55 3.806 4.247 3.806 7.83-.037 2.4-.998 3.287-1.848 3.287zm49.364-17.876c0 2.105-1.589 4.838-4.434 4.838-1.736 0-3.473-1.366-3.473-4.358 0-3.361 2.328-4.876 4.434-4.876a4.464 4.464 0 013.473 1.515v2.88zm15.223-4.802a1.91 1.91 0 011.996 1.847v.037c0 1.662-1.109 2.807-5.247 2.88-.037-3.693 1.995-4.764 3.251-4.764zm17.662 11.45c.037.702-.517 1.33-1.22 1.366h-.11c-.702.037-1.293-.517-1.33-1.218v-.148c0-.739.59-1.33 1.33-1.33.739 0 1.33.591 1.33 1.33zm-2.402 0c-.037.554.37 1.071.96 1.108h.112c.554.037 1.034-.406 1.071-.96v-.148a1.037 1.037 0 00-.96-1.108h-.074c-.555-.037-1.035.406-1.072.96-.037.074-.037.111-.037.148zm1.33.185a.498.498 0 00.333-.554c-.037-.222-.259-.333-.443-.333h-.629v1.404h.26v-.517h.22l.407.48h.296v-.037l-.444-.443zm-.147-.628c.11 0 .221.074.258.184a.279.279 0 01-.184.259h-.444v-.443h.37z" fill-rule="nonzero"/>
  </g>
</svg>
